# xmcd
#
# Track frame offsets:
#	150
#	14550
#	30819
#	53516
#	66051
#
# Disc length: 1108 seconds
#
# Revision: 1
# Processed by: cddbd v1.4b41PL2 Copyright (c) Steve Scherf et al.
# Submitted via: audiograbber 1.80
#
DISCID=30045205
DTITLE=A Girl Called Eddy - Tears All Over Town
DYEAR=1900
DGENRE=
TTITLE0=Heartache
TTITLE1=The Soundtrack of Your Life
TTITLE2=Girls Can Really Tear You Up Inside
TTITLE3=The Same Old Tears
TTITLE4=Fading...
EXTD=
EXTT0=
EXTT1=
EXTT2=
EXTT3=
EXTT4=
PLAYORDER=
